HIERARCHY
ROOT Hips
{
  OFFSET 5.70366 102.999 -1.77653
  CHANNELS 6 Xposition Yposition Zposition Zrotation Xrotation Yrotation
  JOINT RightUpLeg
  {
    OFFSET -8.9458 -8.66707 0.101652
    CHANNELS 3 Zrotation Xrotation Yrotation
    JOINT RightLeg
    {
      OFFSET 0 -44.4227 1.3727
      CHANNELS 3 Zrotation Xrotation Yrotation
      JOINT RightFoot
      {
        OFFSET 0.253549 -42.0924 -1.46059
        CHANNELS 3 Zrotation Xrotation Yrotation
        JOINT RightToes
        {
          OFFSET 0.04 -4.41509 8.4991
          CHANNELS 3 Zrotation Xrotation Yrotation
          End Site
          {
            OFFSET -0.08 -0.137448 9.77979
          }
        }
      }
    }
  }
  JOINT Spine
  {
    OFFSET 0 11.8905 0
    CHANNELS 3 Zrotation Xrotation Yrotation
    JOINT Spine1
    {
      OFFSET 0 25.6574 0.127663
      CHANNELS 3 Zrotation Xrotation Yrotation
      JOINT HEad
      {
        OFFSET 0 8.73416 0.011341
        CHANNELS 3 Zrotation Xrotation Yrotation
        End Site
        {
          OFFSET -0.29 12.7742 2.51395
        }
      }
      JOINT LeftShoulder1
      {
        OFFSET 8.99 -0.362252 -0.22
        CHANNELS 3 Zrotation Xrotation Yrotation
        JOINT LeftArm
        {
          OFFSET 10.2827 -0.00337999 0.322123
          CHANNELS 3 Zrotation Xrotation Yrotation
          JOINT LeftForeArm
          {
            OFFSET 26.2597 0.099144 -1.42434
            CHANNELS 3 Zrotation Xrotation Yrotation
            JOINT LeftHand
            {
              OFFSET 22.0902 0.085362 1.02216
              CHANNELS 3 Zrotation Xrotation Yrotation
              End Site
              {
                OFFSET 13.419 -0.6 1.50291
              }
            }
          }
        }
      }
      JOINT RightShoulder
      {
        OFFSET -8.99 -0.362252 -0.22
        CHANNELS 3 Zrotation Xrotation Yrotation
        JOINT RightArm
        {
          OFFSET -10.2827 -0.00338 0.322123
          CHANNELS 3 Zrotation Xrotation Yrotation
          JOINT RightForeArm
          {
            OFFSET -26.364 0.099144 -1.42434
            CHANNELS 3 Zrotation Xrotation Yrotation
            JOINT RightHand
            {
              OFFSET -22.0324 0.085362 1.02216
              CHANNELS 3 Zrotation Xrotation Yrotation
              End Site
              {
                OFFSET -13.3284 -0.6 1.50291
              }
            }
          }
        }
      }
    }
  }
  JOINT LeftUpLeg
  {
    OFFSET 8.9458 -8.66707 0.101652
    CHANNELS 3 Zrotation Xrotation Yrotation
    JOINT LeftLeg
    {
      OFFSET 0 -44.4227 1.3727
      CHANNELS 3 Zrotation Xrotation Yrotation
      JOINT LeftFoot
      {
        OFFSET -0.253549 -42.0924 -1.46059
        CHANNELS 3 Zrotation Xrotation Yrotation
        JOINT LeftToes
        {
          OFFSET -0.04 -4.41509 8.4991
          CHANNELS 3 Zrotation Xrotation Yrotation
          End Site
          {
            OFFSET 0.08 -0.047448 9.77979
          }
        }
      }
    }
  }
}
MOTION
Frames:	19
Frame Time:	0.0416667
-198.653 103.721 5.25925 -0.96466 -1.65332 85.1313 1.19728 -2.9235 -0.469853 -2.33334 14.2134 1.21559 -5.45117 -8.61102 -0.225744 0.0462048 0.000530886 0.662642 1.74006 -1.97413 0.5218 -2.73043 3.64835 1.00205 6.67457 1.07737 -1.35465 -32.912 -3.27974 12.0737 -52.6722 -22.3466 -17.7341 -19.3542 70.2402 7.01378 2.75484 9.72112 -5.10233 42.6027 0.678843 -2.76683 35.7198 -2.6363 13.4955 2.61786 48.1719 15.5632 -0.278033 9.91198 -0.535456 -3.98687 -3.85752 0.501378 2.24445 15.4255 21.4844 2.7864 -9.37312 0.0834782 -1.36177e-009 8.75222e-006 -1.47714e-008 
-198.46 103.687 5.07268 -0.951669 -1.68485 84.9919 1.21894 -2.92396 -0.251775 -2.53864 14.4613 1.12665 -5.27519 -8.72338 -0.228563 0.0462048 0.000530886 0.662642 1.57202 -1.82665 0.447872 -2.49216 3.66654 0.895026 6.79141 1.02219 -1.06494 -33.0847 -3.33759 12.183 -52.481 -22.3167 -17.5034 -18.8141 70.0274 6.35057 2.57538 9.73964 -4.93082 42.5688 0.678844 -2.76568 35.6645 -2.81006 13.4251 2.45603 48.0366 15.7091 -0.321773 9.91218 -0.394042 -4.13628 -3.62425 0.430004 2.29147 15.2502 21.6895 2.88197 -9.54889 0.0905015 -1.36177e-009 8.75222e-006 -1.47714e-008 
-198.065 103.64 4.71576 -0.981985 -1.73561 85.037 1.12977 -2.85827 -0.00531295 -2.70348 14.8235 0.766908 -4.99622 -9.04935 -0.242442 0.0462048 0.000530886 0.662642 1.2187 -1.76779 0.235605 -2.12247 3.90853 0.623266 6.81763 0.587685 -1.09754 -33.1074 -3.35537 12.2231 -52.5179 -22.3177 -17.3129 -18.0741 69.7009 5.56031 2.4362 9.7563 -4.57567 42.5632 0.679356 -2.75664 35.539 -3.08975 13.2169 2.29878 47.3832 15.8803 -0.455789 9.90908 -0.156197 -4.36579 -3.20091 0.415806 2.33767 14.8668 21.6269 3.09471 -9.8006 0.102505 -1.36177e-009 8.75222e-006 -1.47714e-008 
-197.692 103.532 4.40326 -1.28424 -1.73928 85.2618 1.17559 -3.35432 1.42811 -2.85302 15.7769 -0.852161 -4.31951 -9.85868 -0.270271 0.0462048 0.000530886 0.662642 0.567377 -1.61153 0.103187 -1.71828 3.72309 0.388454 6.78558 0.200172 -1.64019 -32.9258 -3.27937 12.0699 -52.7052 -22.3173 -17.3524 -18.1153 69.88 5.63364 2.44033 9.76188 -4.46727 42.8002 0.649389 -2.82239 34.8755 -2.56785 12.6064 1.97259 45.8713 16.4 -0.657952 9.90133 0.307726 -4.44208 -3.42623 0.609402 2.21301 15.2037 21.0387 3.1536 -10.3217 0.121345 -1.36177e-009 8.75222e-006 -1.47714e-008 
-197.421 103.251 4.23595 -1.81687 -1.59886 84.6936 1.51488 -5.86143 7.17052 -2.11838 20.1413 -6.39325 -4.1374 -10.9186 -0.313426 0.0462048 0.000530886 0.662642 -0.608447 -0.899651 0.42927 -1.1868 2.77555 0.564061 7.02745 0.14177 -1.76885 -32.865 -3.2656 12.0479 -52.5225 -21.9739 -17.428 -18.1002 69.9748 5.35305 2.40359 9.76246 -4.57451 43.0048 0.673443 -2.77818 33.9901 -1.66086 11.4976 1.4803 43.8884 17.1791 -1.28868 9.86796 1.17185 -4.53988 -4.50708 0.906922 2.01403 16.7154 21.0468 2.94736 -11.3169 0.148653 -1.36177e-009 8.75222e-006 -1.47714e-008 
-197.131 102.877 4.14537 -2.0829 -1.35804 82.9705 2.33427 -10.1098 12.2553 -0.649229 27.9649 -10.6031 -5.4841 -10.9211 -0.350704 0.0462048 0.000530886 0.662642 -1.8196 0.429554 1.09125 -1.04238 1.71668 1.15995 7.66482 -0.239393 -1.2889 -32.7276 -3.3037 12.1743 -51.8675 -21.2336 -17.3405 -16.8919 68.9481 3.60581 2.37432 9.76092 -4.63593 43.1799 0.790865 -2.54718 33.5631 -1.85424 10.5787 1.48187 42.6398 17.2935 -2.33808 9.79797 2.10398 -4.84446 -5.36421 1.18995 1.91842 18.4322 22.3399 2.52937 -12.4344 0.167203 -1.36177e-009 8.75222e-006 -1.47714e-008 
-196.661 102.473 4.05558 -1.93285 -1.04341 81.3243 3.1155 -14.6292 12.2023 -0.744002 35.6866 -8.33853 -6.56584 -10.2685 -0.340472 0.0462048 0.000530886 0.662642 -2.88266 1.83966 1.36934 -1.52665 1.14608 1.46804 8.27314 -1.2424 -0.536626 -32.4674 -3.28416 12.1808 -50.9728 -21.0282 -17.0834 -15.3189 67.352 1.74011 2.50249 9.74701 -4.83415 43.5641 0.835415 -2.46861 33.5763 -3.24764 10.5913 1.79855 43.1006 16.7793 -2.73166 9.76875 2.3982 -5.3113 -5.65599 1.49299 1.86073 20.0762 23.6871 1.87219 -13.6287 0.1666 -1.36177e-009 8.75222e-006 -1.47714e-008 
-195.865 102.139 3.92893 -1.77172 -0.895113 80.7563 3.67299 -18.4785 11.5072 -0.678859 39.5883 -5.62215 -5.73263 -10.1753 -0.315981 0.0462048 0.000530886 0.662642 -3.8911 2.76688 0.989547 -1.5347 1.01062 1.05483 8.32414 -2.12141 0.432002 -32.5639 -3.30119 12.2034 -50.4057 -22.2497 -16.8676 -14.1353 66.5554 0.946101 2.57302 9.74202 -5.06303 43.734 0.776917 -2.5888 33.6675 -4.16474 10.7836 1.27706 43.6458 17.1146 -1.81787 9.8343 1.74067 -5.64067 -5.48987 1.73043 1.83702 21.1776 24.1028 1.33355 -14.7219 0.158108 -1.36177e-009 8.75222e-006 -1.47714e-008 
-194.706 101.899 3.79681 -1.69881 -0.996998 80.7186 4.2663 -21.5965 10.8929 -0.633187 39.015 -4.86677 -4.35582 -9.96211 -0.275995 0.0462048 0.000530886 0.662642 -4.69398 3.33251 0.5235 -0.912777 0.964555 0.495999 7.99875 -2.35981 0.858482 -32.7429 -3.35172 12.2933 -50.7082 -23.9994 -16.8181 -12.8633 66.2786 0.738785 2.481 9.75019 -4.82259 43.5472 0.72368 -2.68975 33.446 -3.77817 9.99668 0.0947278 42.1691 18.466 -0.507157 9.91075 0.734489 -5.801 -4.73049 1.87785 1.94796 21.3817 24.1364 1.06165 -15.5825 0.154607 -1.36177e-009 8.75222e-006 -1.47714e-008 
-193.261 101.662 3.69255 -1.53325 -1.13565 80.4319 4.94843 -24.2615 10.9682 -0.648447 35.4967 -6.10661 -3.86129 -8.85174 -0.219968 0.0462048 0.000530886 0.662642 -4.96934 3.97385 0.375301 -0.826333 0.628287 0.379633 7.98846 -2.20395 0.255084 -32.4684 -3.29352 12.2044 -51.2725 -24.978 -16.6076 -11.3562 65.5964 0.205734 2.47612 9.75621 -4.326 43.6306 0.655975 -2.82554 32.8837 -3.64308 8.57435 -0.396612 40.6891 19.1542 0.0847824 9.93721 0.211025 -5.97808 -3.5057 2.09998 2.06687 21.2403 24.339 0.730936 -16.4602 0.142402 -1.36177e-009 8.75222e-006 -1.47714e-008 
-191.557 101.333 3.59622 -1.24192 -1.07866 80.1154 5.37725 -26.6171 11.4144 -0.646681 30.5959 -6.77693 -3.46446 -7.84377 -0.178693 0.0462048 0.000530886 0.662642 -5.04552 4.68542 0.260682 -1.17352 0.175168 0.383365 8.26156 -2.05213 -0.412434 -32.2778 -3.24979 12.1338 -51.0114 -25.2666 -16.1719 -10.3268 64.8516 -0.811126 2.44785 9.7606 -4.16631 43.8659 0.589879 -2.96043 32.4886 -5.28753 7.46719 -0.151281 41.9205 18.5736 0.127956 9.93863 0.151231 -6.40155 -2.05327 2.30459 2.10757 21.1965 24.6406 0.43416 -17.4423 0.129249 -1.36177e-009 8.75222e-006 -1.47714e-008 
-189.521 100.896 3.49975 -0.644393 -0.924901 80.2459 5.42116 -28.4464 11.8555 -0.594589 25.4675 -6.07629 -2.89833 -7.42105 -0.164067 0.0462048 0.000530886 0.662642 -5.22552 5.38095 0.0326447 -1.11935 0.113564 0.182576 8.18303 -1.9898 -0.808265 -32.5413 -3.35045 12.3344 -50.2565 -25.0745 -16.0038 -10.1598 64.4637 -1.52124 2.30874 9.77029 -4.32237 43.7414 0.600411 -2.93756 32.4417 -8.22096 6.53319 0.237373 44.5664 17.4942 0.126584 9.93453 0.0844932 -7.06775 0.0349683 2.38993 2.23642 20.9421 24.8315 0.227055 -18.4808 0.119788 -1.36177e-009 8.75222e-006 -1.47714e-008 
-187.075 100.354 3.43811 0.384747 -0.867102 80.8717 5.27249 -29.6168 12.2033 -0.708762 20.9432 -5.06592 -2.8625 -7.27155 -0.159439 0.0462048 0.000530886 0.662642 -5.18793 6.10124 -0.164235 -0.923369 0.377019 -0.0583374 7.82767 -1.83778 -1.25742 -32.7136 -3.42805 12.4942 -49.9531 -24.7955 -16.0583 -10.6624 64.4539 -1.29244 2.43431 9.75711 -4.5368 43.6658 0.622869 -2.89184 32.1389 -11.2792 5.29834 0.6764 46.9541 16.3245 0.0277931 9.92939 0.0190912 -7.62154 2.93004 2.61937 2.37154 20.6039 24.4749 -0.315603 -19.8705 0.0716772 -1.36177e-009 8.75222e-006 -1.47714e-008 
-184.232 99.6306 3.44672 1.38625 -0.757779 82.0317 4.80989 -30.5207 10.6963 -1.488 17.1562 -3.13811 -2.8099 -7.58595 -0.16933 0.0462048 0.000530886 0.662642 -5.03165 6.46032 -0.44752 -0.783234 0.65699 -0.385196 7.74711 -1.35707 -1.36666 -32.6515 -3.4021 12.4418 -49.8928 -24.5746 -15.7689 -10.8191 64.3422 -1.32677 2.52326 9.74949 -4.54195 43.9119 0.615025 -2.91174 31.4162 -14.1134 3.85283 1.19863 49.2586 15.0384 -0.108422 9.92783 0.0203595 -7.9145 5.83235 3.01535 2.33252 20.8061 23.2936 -0.819782 -21.622 0.0151122 -1.36177e-009 8.75222e-006 -1.47714e-008 
-181.095 98.7545 3.54031 1.94191 -0.454369 83.6771 3.77479 -31.5132 7.90775 -2.01631 13.9769 -2.05794 -2.629 -7.74451 -0.174301 0.0462048 0.000530886 0.662642 -5.13876 6.35097 -0.82002 -0.322002 0.854165 -0.843133 8.02563 -0.604598 -1.55666 -32.6318 -3.38133 12.3933 -49.82 -24.2929 -15.4173 -10.5204 64.23 -1.94475 2.09545 9.78819 -4.3087 44.1808 0.577419 -2.99009 30.5828 -16.3447 2.29281 1.53788 50.5207 14.0426 -0.0420609 9.92951 0.00498268 -8.09789 8.30115 3.17771 2.32546 21.3791 21.675 -1.08642 -23.2058 -0.0240297 -1.36177e-009 8.75222e-006 -1.47714e-008 
-177.62 97.9036 3.76439 2.24564 0.00346666 85.5388 2.36254 -32.2138 5.56212 -2.01885 11.7805 -2.7656 -2.64966 -7.61002 -0.170251 0.0462048 0.000530886 0.662642 -5.56839 6.19003 -1.00779 0.403986 0.829024 -1.18879 8.44905 -0.148042 -2.45819 -32.5911 -3.37718 12.3917 -50.063 -24.1411 -15.4682 -10.8426 64.6869 -1.65644 1.91838 9.80288 -4.32885 44.4849 0.446733 -3.24886 29.6553 -17.9393 0.611539 1.59441 50.6201 13.4844 0.0243508 9.93247 0.0265686 -8.04201 10.6055 3.2787 2.34035 22.1536 19.4425 -2.28602 -24.3935 -0.210416 -1.36177e-009 8.75222e-006 -1.47714e-008 
-173.63 97.2432 4.16442 2.43742 0.831167 87.7028 0.810721 -32.2323 4.08855 -1.95153 11.2577 -3.43214 -2.31126 -8.15835 -0.185871 0.0462048 0.000530886 0.662642 -6.27294 5.64799 -1.17432 1.27221 0.947787 -1.56742 8.87278 -0.4368 -3.1144 -32.5587 -3.37345 12.3894 -50.2601 -24.1485 -15.5024 -11.1831 65.2809 -1.25442 1.9944 9.79555 -4.45344 44.6755 0.338858 -3.45974 29.0306 -19.6201 -0.927596 1.51651 51.3996 12.8915 -0.010498 9.93571 -0.0839096 -7.3975 12.9626 3.71382 2.12765 23.1151 16.0455 -4.11774 -24.4832 -0.490502 -1.36177e-009 8.75222e-006 -1.47714e-008 
-169.126 96.9301 4.70707 2.46265 0.0264521 90.195 -0.276355 -31.6614 3.35224 -1.92303 12.6787 -3.50534 -2.73581 -7.37753 -0.168241 0.0462048 0.000530886 0.662642 -6.64394 4.30739 -1.54725 2.13388 1.81021 -2.12808 9.20005 -1.09807 -3.61941 -32.597 -3.34999 12.321 -50.0631 -24.2267 -15.2517 -10.2786 65.4206 -2.31542 1.13473 9.86812 -3.88072 44.5182 0.414762 -3.31117 29.1268 -21.382 -2.27811 1.31552 52.3518 12.202 0.151604 9.93875 -0.419671 -5.99115 15.4882 4.05279 1.837 23.8228 12.1714 -5.83267 -22.5832 -0.662714 -1.36177e-009 8.75222e-006 -1.47714e-008 
-164.232 96.9537 5.33098 2.56867 0.87515 92.1561 -0.0507242 -30.8599 4.04662 -1.8242 15.5886 -4.78001 -5.26965 -2.07164 0.12742 0.0462048 0.000530886 0.662642 -5.84964 3.10688 -1.73623 2.45475 2.62404 -2.34693 9.30745 -1.56159 -5.15637 -32.4726 -3.24837 12.0879 -49.9463 -24.6443 -14.8384 -9.4514 65.3952 -3.01383 0.398844 9.92475 -3.27724 44.2562 0.515735 -3.11168 29.5711 -22.4568 -3.68356 0.897197 51.989 11.9507 0.369886 9.94151 -0.590445 -3.83698 17.6615 3.40809 1.35179 25.2068 9.35931 -8.74712 -19.3243 -0.812466 -1.36177e-009 8.75222e-006 -1.47714e-008 
